<svg id="Layer_1" data-name="Layer 1" xmlns="http://www.w3.org/2000/svg" viewBox="0 0 89.68018 89.68066"><defs><style>.cls-1{fill:#fff;}.cls-2{fill:#e8a937;}.cls-3{fill:#ae0e44;}</style></defs><rect class="cls-1" x="0.49979" y="0.50001" width="88.68022" height="88.68022"/><path class="cls-2" d="M89.68018,89.68066H0V0H89.68018ZM1,88.68066H88.68018V1H1Z"/><path class="cls-3" d="M11.11648,55.09919c.245,0,.49-.00326.73484.00049q5.12946.07838,10.25879.164a1.56633,1.56633,0,0,1,.5904.137q10.56971,4.69082,21.131,9.40061a1.04487,1.04487,0,0,0,.94076,0q10.07826-4.39608,20.16953-8.76228a2.07751,2.07751,0,0,1,.8102-.16087q6.26668.02037,12.53329.06412a.56677.56677,0,0,1,.28659.05438q-1.05945.47691-2.119.95362Q60.43691,64.1211,44.4222,71.29465a.61106.61106,0,0,1-.57734-.00341Q27.59373,63.28184,11.3377,55.28238q-.11461-.05642-.22937-.11255Zm55.31419,4.20029-.03231-.08621a30.87219,30.87219,0,0,0-3.32911,1.02245c-6.06633,2.61057-12.11014,5.27349-18.15875,7.92513a.66721.66721,0,0,1-.6092-.00758Q38.66358,65.54782,33.01814,62.959c-1.43417-.65725-2.859-1.34111-4.3228-1.92572-1.38338-.55248-2.81231-.991-4.22143-1.47893-.40214-.13926-.80508-.27621-1.20765-.41422a.58955.58955,0,0,0,.25456.20888q10.393,5.17453,20.7845,10.352a.55278.55278,0,0,0,.54348-.00484q10.31436-4.968,20.63252-9.92825C65.7993,59.615,66.11429,59.45578,66.43067,59.29948Z"/><path class="cls-3" d="M21.43381,30.19453a22.32328,22.32328,0,0,1,1.00274-7.32141,23.74413,23.74413,0,0,1,8.05678-11.527A21.86478,21.86478,0,0,1,39.757,7.01943a22.55823,22.55823,0,0,1,20.17218,5.33673A23.19588,23.19588,0,0,1,67.41685,25.2639a19.71354,19.71354,0,0,1,.41065,3.63625c.02233.77878.025,1.55835.02344,2.33754a20.83362,20.83362,0,0,1-1.584,7.77016,23.26459,23.26459,0,0,1-12.841,13.19326,21.85343,21.85343,0,0,1-9.42934,1.75449,22.65464,22.65464,0,0,1-14.7493-5.88985,23.53516,23.53516,0,0,1-7.47118-13.02734A19.17075,19.17075,0,0,1,21.43381,30.19453Zm45.78828-.17808a21.0396,21.0396,0,0,0-.67276-5.5961,22.71514,22.71514,0,0,0-7.78335-12.209,21.92657,21.92657,0,0,0-15.6187-5.012,21.37766,21.37766,0,0,0-8.71788,2.409A22.74847,22.74847,0,0,0,23.49812,21.84082a18.51305,18.51305,0,0,0-1.27138,5.013c-.08719.91421-.10375,1.83541-.14354,2.75383a21.12767,21.12767,0,0,0,.418,5.70759,22.65641,22.65641,0,0,0,7.6163,12.63753,21.84956,21.84956,0,0,0,18.44068,4.99477,21.426,21.426,0,0,0,11.55569-5.89868A22.6353,22.6353,0,0,0,67.22209,30.01645Z"/><path class="cls-3" d="M58.96943,55.22629q-1.31616.62552-2.63247,1.25069-5.74986,2.71407-11.50062,5.42619a.34079.34079,0,0,0-.086.045c-.44672.40607-.86809.22865-1.34254.00829q-6.60516-3.06785-13.22731-6.09909c-.77444-.35534-1.56788-.66929-2.43332-1.03665.17342-.061.27631-.1006.38128-.13355.63931-.20063,1.28212-.39077,1.917-.60439a.66333.66333,0,0,1,.5804.0494q3.55273,1.957,7.11058,3.9048c2.00024,1.09913,4.00241,2.19487,5.99336,3.3106a.61539.61539,0,0,0,.70536-.02121c3.70526-2.17131,7.42-4.32648,11.11786-6.5103a1.72007,1.72007,0,0,1,1.71546-.19949,14.92479,14.92479,0,0,0,1.69627.52677Z"/><path class="cls-3" d="M51.49624,76.53658c-.34138-.026-.76823.11555-.7996-.43948h.69447c-.04649-.21788-.10222-.41662-.12972-.61918a1.04491,1.04491,0,0,1,1.10534-1.27384,2.84212,2.84212,0,0,1,1.77791.71165,3.64144,3.64144,0,0,1,.35249.313.3547.3547,0,0,1,.08972.22637c-.33206-.19217-.65739-.39743-.99808-.57285a2.12052,2.12052,0,0,0-1.10608-.24007.78413.78413,0,0,0-.797.77995,5.80055,5.80055,0,0,0,.031.65576H72.94212c-.31011-.405-.58786-.76981-.86841-1.13242-.05018-.06486-.11432-.11872-.16794-.18116a.80152.80152,0,0,0-.78513-.3301.30091.30091,0,0,1-.33176-.16582c-.11879-.18809-.254-.36579-.40093-.57445a1.31334,1.31334,0,0,1,1.15083.267,10.76921,10.76921,0,0,1,1.54688,1.919.389.389,0,0,0,.39417.21693c.23852-.01666.47909-.004.71878-.004.412,0,.412,0,.58023.42324h-1.367v4.71957c-.37292-.14168-.45419-.25526-.45439-.60664-.00022-.38539-.00005-.77078-.00005-1.20036a1.695,1.695,0,0,1-1.36828.25591,1.66693,1.66693,0,0,1-1.32179-1.30933c-.01979-.13251.00478-.20849.13971-.25508.17635-.06088.34753-.13789.51791-.21465a.82072.82072,0,0,0,.19769-1.30655.2668.2668,0,0,0-.15857-.06592c-.63536-.00451-1.27076-.00291-1.92993-.00291v4.708c-.37044-.144-.45206-.25724-.45208-.60382q-.00008-1.146,0-2.292v-.275c-.36487,0-.71394-.00018-1.063.00007-.17975.00013-.3598-.00533-.53922.00273a.70273.70273,0,0,0-.71626.90935,4.55209,4.55209,0,0,0,.90677,1.88414c.02758.0354.05757.069.08406.10512a.58408.58408,0,0,1,.02752.10876c-.12948-.04309-.27432-.04542-.3181-.11311-.35271-.54528-.70919-1.09072-1.01424-1.66291a1.5417,1.5417,0,0,1-.13522-.76054.95014.95014,0,0,1,.98384-.90891c.58345-.00581,1.167-.00132,1.76721-.00132V76.54128h-4.421v1.80294a7.58452,7.58452,0,0,1,.753-.13542.86678.86678,0,0,1,.72718.30528c-.26565.0371-.49965.0668-.73268.10287-.759.11747-.76435.12486-.76449.88074q-.00017.84265-.0012,1.68531a.21186.21186,0,0,1-.00886.04316.51186.51186,0,0,1-.43351-.56346c-.00016-.34352,0-.687,0-1.00563-.301.05746-.58855.12669-.88015.16539a1.18026,1.18026,0,0,1-1.25083-1.4901.89561.89561,0,0,1,1.00061-.79419,1.5262,1.5262,0,0,1,1.11292.49879V76.54469H60.32112c-.00384.08553-.01.15863-.01.23173-.00055,1.41566.00128,2.83133-.0028,4.247a.36993.36993,0,0,0,.1661.35427,1.74217,1.74217,0,0,1,.41151.43863.72955.72955,0,0,1-.33756,1.16223,2.33479,2.33479,0,0,1-2.1006-.09279,11.4615,11.4615,0,0,1-1.03264-.74914c-.12552-.09092-.10886-.17574-.004-.28123a3.85068,3.85068,0,0,0,1.4988.86911,1.72357,1.72357,0,0,0,1.29233-.02034.65631.65631,0,0,0,.34734-.94971.336.336,0,0,0-.48449-.21475.88744.88744,0,0,0-.16369.073c-.101.05984-.22159.19748-.29242.1745a1.76271,1.76271,0,0,1-.42034-.27781c.17537-.2705.20287-.28066.972-.35345-.3769-.15744-.29119-.44479-.29255-.70291-.00236-.44881-.00066-.89765-.00066-1.366H58.05819c0,.17049.01.34043-.00477.50816-.00624.07075-.0507.17526-.10351.19475a.24756.24756,0,0,1-.21536-.066,8.36262,8.36262,0,0,1-.56823-.69462.37629.37629,0,0,1-.05779-.30516c.02354-.0591.1749-.075.27236-.09441a1.34582,1.34582,0,0,1,.24193-.00277V76.54474H56.0546V81.232c-.33991-.1066-.45864-.2593-.45877-.56759-.00015-.36421,0-.72841,0-1.09694-.25711.11257-.48779.23441-.7318.31679a1.46442,1.46442,0,0,1-1.88927-1.353,1.007,1.007,0,0,1,.36506-.7628,1.561,1.561,0,0,1,2.02354-.002c.06769.055.13254.11346.21934.18806v-1.4124H51.9472v4.68373a.50951.50951,0,0,1-.451-.5366q0-1.9325,0-3.865Zm21.46039.01583H71.45174c.14336.32124.29.63736.42545.95822a.37331.37331,0,0,1-.12209.46406,6.59192,6.59192,0,0,1-.70124.51633c-.27744.16609-.31452.22246-.18457.52082a.58527.58527,0,0,0,.5566.38642,2.34023,2.34023,0,0,0,1.43-.44715.26538.26538,0,0,0,.09648-.18323C72.959,78.03485,72.95663,77.30175,72.95663,76.55241Zm-13.09915-.00663h-1.7823v2.06361h1.7823Zm-4.27266,2.04577c.08154-.24919-.06148-.37845-.2666-.4571a4.17,4.17,0,0,0-.75624-.25662.95926.95926,0,0,0-1.08372,1.29186.631.631,0,0,0,.72666.45463,2.4593,2.4593,0,0,0,1.16108-.54393C55.53271,78.95669,55.65234,78.81905,55.58482,78.59155Zm8.08277.15514c.09589-.28428-.06337-.44339-.28828-.5689-.0455-.02539-.08665-.05857-.132-.08432a1.00908,1.00908,0,0,0-1.17.09425.7971.7971,0,0,0-.17864.90574.59157.59157,0,0,0,.68558.41532,3.50354,3.50354,0,0,0,.76635-.21672C63.59421,79.20387,63.76147,79.04627,63.66759,78.74669Z"/><path class="cls-3" d="M49.25649,76.52534H47.91024V81.2291c-.32444-.08934-.45776-.25416-.45786-.54222-.00021-.636-.00006-1.272-.00006-1.92814H45.97521c0,.1754.00676.3592-.00352.54206-.00381.06777-.03886.18271-.07509.18912a.26492.26492,0,0,1-.21375-.07026,6.88374,6.88374,0,0,1-.52435-.67089c-.16893-.25455-.06651-.44264.23956-.44886.52414-.01067,1.04863-.00427,1.573-.00494.14886-.00019.29771,0,.4639,0V76.546H44.09445v4.68552a.52278.52278,0,0,1-.458-.56409q-.00015-1.93261-.00014-3.86522v-.25689H42.47457v4.68614a.52142.52142,0,0,1-.458-.56427q.00018-1.31461,0-2.62924v-.25748H40.16851c.09459.06984.157.11049.21329.15841.267.22738.54775.44135.79365.68977a.4821.4821,0,0,1,.0091.73948,1.69338,1.69338,0,0,1-.84257.618l.99267.88571-.19846.1857c-.35716-.3163-.69891-.62971-1.05423-.92688a.9507.9507,0,0,0-.36769-.17946c-.35121-.089-.5304-.27834-.53-.59747.00029-.22144.11794-.30259.31743-.21006a.56958.56958,0,0,1,.17689.13331.45448.45448,0,0,0,.62522.13418,1.55765,1.55765,0,0,0,.42348-.35723c.13643-.1617.07087-.33686-.04779-.49235a2.02223,2.02223,0,0,0-.96519-.73926,2.08362,2.08362,0,0,1-.46879-.212c-.0818-.05293-.12223-.16981-.18129-.25791a.80217.80217,0,0,1,.26612-.11006c.79392-.00881,1.588-.00531,2.382-.00544.089,0,.17808,0,.28564,0v-.69255H38.02825v4.6917c-.36255-.13033-.45541-.25668-.45555-.59763-.00015-.35594,0-.71188,0-1.04988a7.26707,7.26707,0,0,1-.93275.34A1.45447,1.45447,0,0,1,34.954,78.54889a.96121.96121,0,0,1,.34967-.76931,1.56042,1.56042,0,0,1,2.023-.023c.06985.05626.13639.11663.22541.19309V76.54642H33.92577v4.689c-.35553-.12711-.45252-.25612-.45256-.5782q-.00023-1.92138-.00006-3.84275V76.55c-.31248-.07143-.7765.13652-.79882-.4476h.65524a6.3214,6.3214,0,0,1-.07917-.98863.95232.95232,0,0,1,.98831-.90826,2.70588,2.70588,0,0,1,1.76332.61938,5.14471,5.14471,0,0,1,.47707.40888,1.134,1.134,0,0,1,.14179.25378,8.61307,8.61307,0,0,0-1.06364-.59991,3.5043,3.5043,0,0,0-1.08239-.23511.75189.75189,0,0,0-.81289.77576,5.989,5.989,0,0,0,.03405.66459c.13027,0,.22572,0,.32116,0l14.71909-.00009C49.12567,76.09277,49.12567,76.0928,49.25649,76.52534Zm-11.6951,2.06987c.08228-.24951-.05718-.38047-.26412-.45936a4.20237,4.20237,0,0,0-.75579-.25743.959.959,0,0,0-1.08728,1.28874.62939.62939,0,0,0,.72493.4569,2.43346,2.43346,0,0,0,1.1612-.54274C37.50584,78.95727,37.63112,78.82332,37.56139,78.59521Z"/><path class="cls-3" d="M18.58957,76.52908c-.44977,0-.86079,0-1.27182,0q-.93246,0-1.86491.00012c-.409,0-.409,0-.56608-.43625h.268l10.13335-.00007c.39791,0,.39791,0,.54471.428H24.463v4.743c-.27851-.1699-.47207-.302-.45014-.65381.038-.61045.01057-1.225.01057-1.85454h-1.473c0,.18676.00769.372-.00413.55592-.0042.0655-.04179.16315-.08956.18212a.21912.21912,0,0,1-.19313-.06479,7.14863,7.14863,0,0,1-.56739-.74854c-.12854-.20732.00381-.37713.28414-.38093.59157-.008,1.1833-.00367,1.775-.00436.08031-.00009.16062,0,.25286,0V76.54205H20.65079v4.71156a.64221.64221,0,0,1-.4508-.65738c.02581-1.26521.01013-2.53128.01011-3.797v-.25493H19.03691v4.69434c-.38629-.16115-.4473-.2491-.44729-.612,0-.87629-.00532-1.75262.00408-2.62881.00205-.19048-.05934-.24186-.24273-.23723-.45658.01153-.91364.00316-1.3705.00432-.06319.00016-.12635.00907-.23907.01775.20755.15095.38344.26212.53923.39658a4.95826,4.95826,0,0,1,.5109.50227.44373.44373,0,0,1,.0181.61707,1.87323,1.87323,0,0,1-.88822.69674l.99354.88233-.21295.17266c-.352-.31024-.69977-.62628-1.05979-.92769a.87309.87309,0,0,0-.34792-.16911c-.35081-.08376-.53219-.272-.53613-.59175-.00288-.234.12062-.31614.3292-.21257a.55338.55338,0,0,1,.15752.12274.48232.48232,0,0,0,.68483.11446,1.47615,1.47615,0,0,0,.35308-.30663.378.378,0,0,0-.02807-.51284,2.01407,2.01407,0,0,0-.94249-.73335,2.13934,2.13934,0,0,1-.46981-.20967,1.0026,1.0026,0,0,1-.205-.26638.86709.86709,0,0,1,.2837-.11494c.7788-.0095,1.55777-.00468,2.33669-.00592.37105-.00059.32873.03284.33164-.34281C18.5903,76.78315,18.58957,76.67244,18.58957,76.52908Z"/><path class="cls-3" d="M27.82046,79.05027v-.7372h2.34472v.7372Z"/><path class="cls-3" d="M47.79171,75.19859l-.42192-.44622.45724-.40071.38033.40921Z"/><path class="cls-3" d="M23.73742,30.55a40.67788,40.67788,0,0,1,.30819-4.16935,20.78234,20.78234,0,0,1,6.13777-11.58678A19.75746,19.75746,0,0,1,41.14027,9.215,20.25383,20.25383,0,0,1,60.3439,16.18741a19.6985,19.6985,0,0,1,4.98231,11.11035c.90854,8.30915-1.84326,15.15764-8.5503,20.26694a19.42036,19.42036,0,0,1-9.11427,3.75267A21.08956,21.08956,0,0,1,23.84727,32.82472a20.9,20.9,0,0,1-.013-2.27061Zm22.59582-4.10743.07337.04921A138.20411,138.20411,0,0,1,55.47115,13.5668a3.82518,3.82518,0,0,1-.40534.03644,10.46378,10.46378,0,0,1-1.67295-.08345,4.01632,4.01632,0,0,1-2.62248-2.06314c-.07677-.12537-.13866-.29332-.34216-.18614-.18274.09625-.42288.07028-.452.4073-.093,1.07481-.182,2.15513-.37242,3.21537a69.22141,69.22141,0,0,1-2.50341,9.28588C46.85231,24.93606,46.58935,25.68817,46.33324,26.44253ZM44.64266,50.16089a3.26431,3.26431,0,0,1,.27593-.22134,10.738,10.738,0,0,1,1.46677-.87263,3.4984,3.4984,0,0,1,3.02608.31608c.12646.06484.25582.19729.39406.01378.11611-.15413.27277-.25184.15686-.523-.55166-1.29048-1.10779-2.58171-1.58632-3.90026-1.2278-3.38306-2.22506-6.83934-3.18437-10.30646-.03779-.13659-.0846-.27068-.12721-.40593A157.28239,157.28239,0,0,1,44.64266,50.16089Zm11.02821-3.62838C52.25969,42.477,49.37918,38.13963,46.42705,33.847A122.853,122.853,0,0,1,50.7492,48.42217,7.46065,7.46065,0,0,1,55.67087,46.53251Zm3.99638-3.77695c.03421-.46316.02966-.89794.1043-1.31868a3.10483,3.10483,0,0,1,2.19575-2.3852c.12845-.04972.31824-.04623.28394-.27816-.03075-.20793-.06366-.36311-.32028-.44888-1.21927-.4075-2.4403-.8151-3.63764-1.28182-3.37691-1.31633-6.663-2.84065-9.93093-4.40442-.1122-.05368-.2273-.10127-.341-.1517C51.96591,35.83868,55.9803,39.09278,59.66725,42.75556ZM33.90378,46.4291A145.55768,145.55768,0,0,1,41.82843,33.352a145.98449,145.98449,0,0,1-11.9665,10.007A4.781,4.781,0,0,1,33.90378,46.4291ZM48.521,29.12637c5.08821-.75945,10.15919-1.56527,15.36-1.85265a4.90748,4.90748,0,0,1-1.48679-2.20611,4.94833,4.94833,0,0,1,.1051-2.65465A132.60364,132.60364,0,0,1,48.521,29.12637ZM44.18678,10.60106a4.22116,4.22116,0,0,1-4.96478.40027,142.65285,142.65285,0,0,1,4.73457,15.13861A150.21988,150.21988,0,0,1,44.18678,10.60106ZM34.15645,13.3704c3.2114,4.16169,5.897,8.64125,8.66374,13.0728A151.71376,151.71376,0,0,1,38.749,11.69482,4.63029,4.63029,0,0,1,36.67,13.2005,6.66682,6.66682,0,0,1,34.15645,13.3704Zm4.77891,35.39014c.9961-5.043,2.513-9.87641,3.96028-14.72919-1.38313,2.20253-2.72225,4.42307-4.09661,6.62159a66.6795,66.6795,0,0,1-4.49364,6.46589A5.00977,5.00977,0,0,1,38.93536,48.76054Zm5.065.91084c-.05651-2.57191-.1526-5.13858-.15812-7.70544-.0055-2.55855.07983-5.1173.12534-7.67595-.26758.79487-.46063,1.60224-.68994,2.39918-.92282,3.20716-1.84137,6.41572-2.79619,9.6134-.28688.96077-.6893,1.88686-1.0291,2.83231a.33212.33212,0,0,0,.02981.28311c.04125.04525.18487.02069.2729-.00608a2.61771,2.61771,0,0,0,.32072-.15447,3.5057,3.5057,0,0,1,3.4997.14251C43.72944,49.49413,43.87979,49.59417,44.00039,49.67138Zm15.18985-31.788c-3.56638,3.56616-7.4188,6.76447-11.23374,10.015a138.33044,138.33044,0,0,1,13.86153-6.131C59.81268,19.86188,60.04284,20.0681,59.19024,17.88335ZM27.17678,38.00217c4.40248-2.44474,8.92577-4.46474,13.43623-6.521A139.05174,139.05174,0,0,1,25.84285,33.486,6.87447,6.87447,0,0,1,27.17678,38.00217Zm13.83829-5.57434c-.0667.028-.13517.05236-.19985.08442-1.01709.50425-2.0294,1.01834-3.05117,1.51289-3.44453,1.6672-6.88654,3.34031-10.4709,4.697-.10282.03892-.15141.22114-.22529.33654a1.95735,1.95735,0,0,0,.291.18192,3.55176,3.55176,0,0,1,2.43576,2.97263c.00541.04385.04491.0835.08.14541C33.38615,38.79818,37.22073,35.64489,41.01507,32.42783Zm.12153-4.60353c-3.80284-3.36293-7.64416-6.68158-11.225-10.41487a3.41889,3.41889,0,0,1-2.78025,3.65035A146.61055,146.61055,0,0,1,41.1366,27.8243Zm6.20154-.6866c.08027-.06611.16333-.12915.24042-.19879,3.6855-3.32876,7.35012-6.68222,11.34992-9.64053a.33149.33149,0,0,0,.12022-.44852.40026.40026,0,0,0-.293-.161,3.20986,3.20986,0,0,1-3.04305-2.092.5793.5793,0,0,0-.0885-.11155C53.12863,18.89543,50.19884,22.98175,47.33814,27.1377Zm-5.51981-.05835c-2.77645-4.18486-5.59445-8.33327-7.98943-12.82578a4.53526,4.53526,0,0,1-3.50136,2.69754C34.40055,20.13715,38.08787,23.63116,41.81833,27.07935Zm-16.23128-.605c5.17466.14542,10.08811,1.31991,15.015,2.45175-4.40911-2.12675-8.844-4.19814-13.03889-6.73351a2.04317,2.04317,0,0,0-.19946-.08624A5.28837,5.28837,0,0,1,25.58705,26.47437Zm21.7596,6.78515c3.00956,4.15808,6.07353,8.27346,8.71476,12.75153a4.61712,4.61712,0,0,1,1.07876-1.94584A4.31226,4.31226,0,0,1,59.109,43.045C54.96557,39.98425,51.17732,36.60078,47.34665,33.25952Zm-7.00774-3.13525a82.02182,82.02182,0,0,1-14.30855-2.14138c.3329,1.66733.40868,3.2399-.78036,4.62828A131.52877,131.52877,0,0,1,40.33891,30.12427Zm8.34167,1.08052a133.48566,133.48566,0,0,1,13.45359,6.10284,8.22346,8.22346,0,0,1,1.243-4.19884A100.81527,100.81527,0,0,1,48.68058,31.20479Zm14.725-3.12968c-4.84363.99161-9.73109,1.545-14.61868,2.12947a.30092.30092,0,0,0,.1709.06577c2.61845.22046,5.24.40922,7.85461.66873a44.04,44.04,0,0,1,6.99418,1.18515,1.16526,1.16526,0,0,0,.29.00307C62.73525,30.94009,62.87817,29.55993,63.40559,28.07511ZM45.07722,26.06922c.47188-2.43946.91083-4.85878,1.41344-7.26481a37.19693,37.19693,0,0,1,2.14463-7.10668A5.56344,5.56344,0,0,1,44.837,10.31864,142.87256,142.87256,0,0,1,45.07722,26.06922Zm2.19319,4.17328a2.64236,2.64236,0,1,0-5.2786.10108,2.63978,2.63978,0,1,0,5.2786-.10108Z"/></svg>